<svg width="40" height="40" viewBox="0 0 40 40" fill="none" xmlns="http://www.w3.org/2000/svg">
<g opacity="0.8">
<path d="M17 30H23C28 30 30 28 30 23V17C30 12 28 10 23 10H17C12 10 10 12 10 17V23C10 28 12 30 17 30Z" stroke="black" stroke-width="1.5" stroke-linecap="round" stroke-linejoin="round"/>
<path d="M23.57 26.4996V22.5996" stroke="black" stroke-width="1.5" stroke-miterlimit="10" stroke-linecap="round" stroke-linejoin="round"/>
<path d="M23.57 15.45V13.5" stroke="black" stroke-width="1.5" stroke-miterlimit="10" stroke-linecap="round" stroke-linejoin="round"/>
<path d="M23.57 20.6492C25.0059 20.6492 26.17 19.4852 26.17 18.0492C26.17 16.6133 25.0059 15.4492 23.57 15.4492C22.1341 15.4492 20.97 16.6133 20.97 18.0492C20.97 19.4852 22.1341 20.6492 23.57 20.6492Z" stroke="black" stroke-width="1.5" stroke-miterlimit="10" stroke-linecap="round" stroke-linejoin="round"/>
<path d="M16.43 26.5008V24.5508" stroke="black" stroke-width="1.5" stroke-miterlimit="10" stroke-linecap="round" stroke-linejoin="round"/>
<path d="M16.43 17.4V13.5" stroke="black" stroke-width="1.5" stroke-miterlimit="10" stroke-linecap="round" stroke-linejoin="round"/>
<path d="M16.43 24.5496C17.8659 24.5496 19.03 23.3855 19.03 21.9496C19.03 20.5137 17.8659 19.3496 16.43 19.3496C14.994 19.3496 13.83 20.5137 13.83 21.9496C13.83 23.3855 14.994 24.5496 16.43 24.5496Z" stroke="black" stroke-width="1.5" stroke-miterlimit="10" stroke-linecap="round" stroke-linejoin="round"/>
</g>
</svg>
